<?xml version="1.0" encoding="UTF-8" standalone="no"?>
<!-- Created with Inkscape (http://www.inkscape.org/) -->

<svg
   xmlns:dc="http://purl.org/dc/elements/1.1/"
   xmlns:cc="http://creativecommons.org/ns#"
   xmlns:rdf="http://www.w3.org/1999/02/22-rdf-syntax-ns#"
   xmlns:svg="http://www.w3.org/2000/svg"
   xmlns="http://www.w3.org/2000/svg"
   xmlns:sodipodi="http://sodipodi.sourceforge.net/DTD/sodipodi-0.dtd"
   xmlns:inkscape="http://www.inkscape.org/namespaces/inkscape"
   width="184mm"
   height="203mm"
   viewBox="0 0 651.96846 719.29133"
   id="svg2"
   version="1.1"
   inkscape:version="0.91 r13725"
   sodipodi:docname="drawing.svg">
  <defs
     id="defs4">
    <inkscape:path-effect
       effect="spiro"
       id="path-effect4292"
       is_visible="true" />
    <inkscape:path-effect
       effect="spiro"
       id="path-effect4288"
       is_visible="true" />
    <inkscape:path-effect
       effect="spiro"
       id="path-effect4284"
       is_visible="true" />
    <inkscape:path-effect
       effect="spiro"
       id="path-effect4280"
       is_visible="true" />
    <inkscape:path-effect
       effect="spiro"
       id="path-effect4276"
       is_visible="true" />
    <inkscape:path-effect
       effect="spiro"
       id="path-effect4272"
       is_visible="true" />
    <inkscape:path-effect
       effect="spiro"
       id="path-effect4268"
       is_visible="true" />
  </defs>
  <sodipodi:namedview
     id="base"
     pagecolor="#ffffff"
     bordercolor="#666666"
     borderopacity="1.0"
     inkscape:pageopacity="0.0"
     inkscape:pageshadow="2"
     inkscape:zoom="0.50495408"
     inkscape:cx="185.14861"
     inkscape:cy="429.34433"
     inkscape:document-units="px"
     inkscape:current-layer="layer1"
     showgrid="false"
     inkscape:window-width="1440"
     inkscape:window-height="851"
     inkscape:window-x="107"
     inkscape:window-y="3"
     inkscape:window-maximized="0" />
  <metadata
     id="metadata7">
    <rdf:RDF>
      <cc:Work
         rdf:about="">
        <dc:format>image/svg+xml</dc:format>
        <dc:type
           rdf:resource="http://purl.org/dc/dcmitype/StillImage" />
        <dc:title></dc:title>
      </cc:Work>
    </rdf:RDF>
  </metadata>
  <g
     inkscape:label="Layer 1"
     inkscape:groupmode="layer"
     id="layer1"
     transform="translate(0,-333.07087)">
    <path
       style="fill:none;fill-rule:evenodd;stroke:#000000;stroke-width:2.27349806px;stroke-linecap:butt;stroke-linejoin:miter;stroke-opacity:1"
       d="m 3.5035069,377.18199 c 43.5911441,-7.33976 89.0460731,-3.31316 130.6681531,11.57516 41.62209,14.88832 79.31838,40.60512 108.36459,73.92744 29.04622,33.32233 49.3775,74.17576 58.44584,117.44035 9.06833,43.2646 6.85346,88.84375 -6.36703,131.02524 -9.25369,29.52497 -23.67834,57.11086 -36.05367,85.46938 -12.37534,28.35851 -22.86297,58.23977 -23.49188,89.17452 -0.88657,43.60864 18.81168,86.75022 50.79504,116.40762 31.98336,29.6575 75.48343,45.9291 119.08906,46.9528 43.60564,1.0237 87.07216,-12.7692 123.52058,-36.7277 36.44841,-23.95861 65.97863,-57.78952 87.02524,-95.99344 43.93695,-79.75457 49.97706,-178.51825 19.86084,-264.44997 C 605.24406,566.05167 540.31696,493.6528 460.01938,450.71628 410.8462,424.42252 356.79148,408.90759 304.53933,389.43771 269.68069,376.4489 235.43854,361.62483 199.71762,351.23974 163.99669,340.85465 126.31475,334.98148 89.513762,340.41485 58.325184,345.01959 28.383303,357.81896 3.5035069,377.18199 Z"
       id="path4266"
       inkscape:path-effect="#path-effect4268"
       inkscape:original-d="M 3.5035069,377.18199 C 214.30876,362.3211 328.61432,522.21083 294.61506,711.15018 c -11.00915,61.17974 -89.8913,90.32571 -59.54555,174.6439 35.09619,97.51757 326.12401,131.23482 380.42992,30.63928 C 704.66007,751.27332 605.84416,558.76587 460.01938,450.71628 419.01904,420.33688 352.4006,411.60211 304.53933,389.43771 244.2637,361.52424 162.1193,317.99924 89.513762,340.41485 58.621105,349.95237 33.945792,367.78351 3.5035069,377.18199 Z"
       inkscape:connector-curvature="0" />
    <path
       style="fill:none;fill-rule:evenodd;stroke:#000000;stroke-width:2.27349806px;stroke-linecap:butt;stroke-linejoin:miter;stroke-opacity:1"
       d="m 311.15552,677.44697 c -3.60961,10.82568 -2.74045,23.07065 2.36208,33.27794 5.10254,10.20729 14.37562,18.2512 25.20131,21.86081 10.82568,3.6096 23.07064,2.74045 33.27793,-2.36209 10.20729,-5.10254 18.2512,-14.37562 21.86081,-25.2013 3.60961,-10.82568 2.74045,-23.07065 -2.36208,-33.27794 -5.10254,-10.20729 -14.37562,-18.2512 -25.20131,-21.86081 -10.82568,-3.6096 -23.07064,-2.74045 -33.27793,2.36209 -10.20729,5.10254 -18.2512,14.37562 -21.86081,25.2013 z"
       id="path4270"
       inkscape:path-effect="#path-effect4272"
       inkscape:original-d="m 311.15552,677.44697 c -9.27799,94.44927 182.49824,120.00587 82.70213,27.57536 -34.31135,-31.77896 -82.42363,-27.61835 -82.70213,-27.57536 z"
       inkscape:connector-curvature="0" />
    <path
       style="fill:none;fill-rule:evenodd;stroke:#000000;stroke-width:2.27349806px;stroke-linecap:butt;stroke-linejoin:miter;stroke-opacity:1"
       d="m 479.8679,652.93555 c -18.44909,10.39266 -32.50631,28.31613 -38.20307,48.71033 -5.69676,20.3942 -2.9629,43.00796 7.42975,61.45706 10.39266,18.44909 28.31614,32.50631 48.71034,38.20306 20.3942,5.69676 43.00796,2.96291 61.45705,-7.42975 18.44909,-10.39266 32.50631,-28.31613 38.20307,-48.71033 5.69676,-20.3942 2.9629,-43.00796 -7.42975,-61.45706 -10.39266,-18.44909 -28.31614,-32.50631 -48.71034,-38.20306 -20.3942,-5.69676 -43.00796,-2.96291 -61.45705,7.42975 z"
       id="path4274"
       inkscape:path-effect="#path-effect4276"
       inkscape:original-d="m 479.8679,652.93555 c -110.84082,30.65513 -24.04255,172.87481 79.39407,140.9407 75.42984,-23.28757 -6.29616,-140.9407 -79.39407,-140.9407 z"
       inkscape:connector-curvature="0" />
    <path
       style="fill:none;fill-rule:evenodd;stroke:#000000;stroke-width:2.27349806px;stroke-linecap:butt;stroke-linejoin:miter;stroke-opacity:1"
       d="m 307.19476,831.72692 221.64175,61.27857 c -8.97541,32.0481 -32.59338,59.67945 -62.85362,73.53428 -19.74607,9.04086 -42.08657,12.32699 -63.59964,9.35507 -21.51307,-2.97191 -42.12591,-12.19183 -58.68132,-26.24755 -16.5554,-14.05571 -28.99733,-32.89967 -35.42009,-53.64557 -6.42277,-20.74591 -6.80462,-43.32356 -1.08708,-64.2748 z"
       id="path4278"
       inkscape:path-effect="#path-effect4280"
       inkscape:original-d="m 307.19476,831.72692 c -38.81659,161.57011 195.03456,233.78248 221.64175,61.27857 -22.86073,12.70409 -36.15032,48.80185 -62.85362,73.53428 -62.64581,58.02213 -217.93478,-62.79585 -158.78813,-134.81285 z"
       inkscape:connector-curvature="0" />
    <path
       style="fill:none;fill-rule:evenodd;stroke:#000000;stroke-width:2.27349806px;stroke-linecap:butt;stroke-linejoin:miter;stroke-opacity:1"
       d="m 337.6202,674.38305 0,0 z"
       id="path4282"
       inkscape:path-effect="#path-effect4284"
       inkscape:original-d="m 337.6202,674.38305 c -55.23739,101.98916 108.3256,-16.72176 0,0 z"
       inkscape:connector-curvature="0" />
    <path
       style="fill:none;fill-rule:evenodd;stroke:#000000;stroke-width:2.27349806px;stroke-linecap:butt;stroke-linejoin:miter;stroke-opacity:1"
       d="m 328.17082,681.82295 c 2.80747,-5.62935 7.91505,-10.06831 13.88079,-12.06368 5.96574,-1.99538 12.71616,-1.52259 18.34552,1.28488 5.62935,2.80748 10.06831,7.91506 12.06368,13.8808 1.99537,5.96573 1.52258,12.71616 -1.28489,18.34551 -2.80747,5.62935 -7.91505,10.06831 -13.88079,12.06368 -5.96574,1.99538 -12.71616,1.52259 -18.34552,-1.28488 -5.62935,-2.80748 -10.06831,-7.91506 -12.06368,-13.8808 -1.99537,-5.96573 -1.52258,-12.71616 1.28489,-18.34551 z"
       id="path4286"
       inkscape:path-effect="#path-effect4288"
       inkscape:original-d="m 328.17082,681.82295 c -89.32077,35.88123 81.41051,92.58918 43.0051,21.44751 -11.1255,-20.60876 -16.9898,-17.43164 -43.0051,-21.44751 z"
       inkscape:connector-curvature="0" />
    <path
       style="fill:none;fill-rule:evenodd;stroke:#000000;stroke-width:2.27349806px;stroke-linecap:butt;stroke-linejoin:miter;stroke-opacity:1"
       d="m 497.82493,678.75903 c -11.98518,6.66534 -20.92589,18.57972 -23.97586,31.95017 -3.04996,13.37045 -0.16046,27.98345 7.74862,39.18691 7.90908,11.20347 20.71144,18.81849 34.33142,20.4208 13.61998,1.60231 27.84006,-2.83367 38.13327,-11.89574 11.17244,-9.83615 17.45871,-24.97411 16.54045,-39.8311 -0.50836,-8.22511 -3.13235,-16.31068 -7.55073,-23.26688 -4.41838,-6.95621 -10.62175,-12.76825 -17.85071,-16.72463 -7.22897,-3.95638 -15.46814,-6.04869 -23.7089,-6.02077 -8.24075,0.0279 -16.46556,2.17598 -23.66756,6.18124 z"
       id="path4290"
       inkscape:path-effect="#path-effect4292"
       inkscape:original-d="m 497.82493,678.75903 c -47.60086,42.36864 -3.58698,107.36663 56.23745,79.66214 17.37418,-8.04594 16.54045,-24.83193 16.54045,-39.8311 0,-80.92574 -102.30178,-50.76899 -72.7779,-39.83104 z"
       inkscape:connector-curvature="0" />
    <path
       style="opacity:1;fill:#ff00ff;fill-opacity:0.25641031;stroke:#000000;stroke-width:1.98037815;stroke-opacity:1"
       d="m 371.13695,710.18136 c -35.44734,-7.8918 -62.32246,-22.48414 -87.16747,-47.32915 -29.25812,-29.25813 -44.10526,-61.20919 -46.01244,-99.01891 -1.70408,-33.78281 5.65879,-62.42698 29.40727,-114.40482 18.1908,-39.81385 27.37455,-63.4363 32.46721,-83.51217 C 330.42527,245.31214 273.78953,121.09835 163.16642,66.181765 124.25506,46.865014 92.187601,39.504165 46.016675,39.290902 10.440474,39.126576 10.71445,39.412616 34.646717,27.420288 66.120731,11.648828 87.653141,7.4238804 129.30707,8.8466558 c 25.83567,0.88247 33.56194,1.9764312 56.85677,8.0503352 14.82701,3.865998 43.79004,13.403723 64.36228,21.194944 20.57227,7.791222 62.80247,23.327456 93.84489,34.524968 76.90595,27.741227 100.10285,37.702827 130.70496,56.129437 75.90132,45.70288 136.03607,120.29974 161.1217,199.87064 11.73471,37.22216 14.0028,53.50879 14.0028,100.55061 0,37.90929 -0.58516,46.26922 -4.50516,64.36229 -13.43029,61.98859 -38.44053,109.47431 -79.41663,150.7844 -31.3985,31.65443 -66.04171,52.30015 -106.05555,63.20413 -21.23365,5.78629 -68.68602,7.20473 -89.08618,2.66295 z m 71.26278,-67.14165 c 34.55839,-7.25563 64.20835,-30.46504 80.15153,-62.74105 4.67319,-9.4606 8.03413,-18.40652 7.46876,-19.87985 -0.90413,-2.35609 -215.90498,-63.17243 -222.69136,-62.9917 -3.45739,0.0921 -5.52203,12.34338 -5.51746,32.73976 0.0159,73.50932 68.02221,128.10835 140.58853,112.87284 z m 94.78797,-172.2622 c 25.09596,-5.31701 44.52719,-20.55115 56.11245,-43.99231 6.15065,-12.44502 7.39421,-17.20486 8.12309,-31.09178 1.42672,-27.18271 -6.5866,-47.80401 -25.4232,-65.42346 -33.42827,-31.26821 -84.90408,-29.66994 -116.37916,3.61346 -14.79162,15.64142 -20.7609,29.58493 -21.79917,50.9203 -1.75139,35.98816 15.65346,66.05925 46.51508,80.36614 18.37031,8.51614 32.19816,9.98332 52.85091,5.60765 z M 364.93954,401.60924 c 13.19971,-3.97254 22.67366,-11.95027 28.1445,-23.69972 14.45555,-31.04541 -6.74683,-64.68477 -40.68525,-64.55056 -14.11795,0.0558 -25.14264,5.0972 -34.14415,15.61344 -21.41145,25.01447 -10.48933,62.78454 21.00732,72.64585 10.66081,3.33781 14.5615,3.33643 25.67758,-0.01 l 0,8.9e-4 z"
       id="path4294"
       inkscape:connector-curvature="0"
       transform="translate(-3.0517578e-5,333.07087)" />
    <path
       style="opacity:1;fill:#ff2a2a;fill-opacity:0.25641031;stroke:#000000;stroke-width:1.98037815;stroke-opacity:1"
       d="m 334.62146,374.55486 c -4.8702,-4.87021 -6.09347,-7.76346 -6.09347,-14.41219 0,-20.27957 22.55711,-30.04323 36.06763,-15.61158 6.75974,7.22061 8.25467,12.97921 5.52027,21.26453 -5.1492,15.60222 -23.99958,20.25408 -35.49443,8.75924 z"
       id="path4296"
       inkscape:connector-curvature="0"
       transform="translate(-3.0517578e-5,333.07087)" />
    <path
       style="opacity:1;fill:#ff2a2a;fill-opacity:0.25641031;stroke:#000000;stroke-width:1.98037815;stroke-opacity:1"
       d="m 510.70995,434.3442 c -15.59936,-5.04566 -29.9448,-18.43462 -33.51077,-31.27645 -4.89529,-17.62898 -1.25548,-33.75049 10.35452,-45.8624 19.55069,-20.39589 48.57162,-20.39589 68.12231,0 26.57626,27.72518 8.68244,73.61217 -30.30819,77.72247 -5.33176,0.56206 -11.92779,0.29944 -14.65787,-0.58362 z"
       id="path4298"
       inkscape:connector-curvature="0"
       transform="translate(-3.0517578e-5,333.07087)" />
    <path
       style="opacity:1;fill:#00ff00;fill-opacity:0.25641031;stroke:#000000;stroke-width:1.98037815;stroke-opacity:1"
       d="m 394.29363,639.17053 c -45.65807,-10.40043 -80.16679,-47.20377 -87.61113,-93.43676 -2.11249,-13.11959 -1.07992,-37.2511 1.79284,-41.89933 0.98066,-1.58674 32.42817,6.31474 105.28853,26.45471 57.13963,15.79446 105.84888,29.21983 108.24278,29.83416 l 4.35256,1.11695 -3.94109,9.9986 c -19.45496,49.35761 -76.61644,79.66466 -128.12449,67.93167 z"
       id="path4300"
       inkscape:connector-curvature="0"
       transform="translate(-3.0517578e-5,333.07087)" />
  </g>
</svg>
